<svg width="24" height="24" viewBox="0 0 24 24" fill="none" xmlns="http://www.w3.org/2000/svg">
<path d="M12 2C9.50001 2 7.25001 2.9 5.50001 4.4C6.00001 4.81 6.41001 5.27 6.80001 5.76L7.89001 5.13L8.89001 6.87L7.89001 7.44C8.45001 8.53 8.82001 9.73 8.95001 11H10V13H8.95001C8.82001 14.27 8.45001 15.47 7.89001 16.56L8.89001 17.13L7.89001 18.87L6.80001 18.24C6.41001 18.73 6.00001 19.19 5.50001 19.6C7.25001 21.1 9.50001 22 12 22C14.5 22 16.75 21.1 18.5 19.6C18 19.19 17.59 18.73 17.19 18.24L16.11 18.87L15.11 17.13L16.11 16.55C15.5364 15.4439 15.1768 14.2395 15.05 13H14V11H15.05C15.18 9.73 15.55 8.53 16.11 7.45L15.11 6.87L16.11 5.13L17.19 5.76C17.59 5.27 18 4.81 18.5 4.4C16.75 2.9 14.5 2 12 2ZM4.12001 5.85C2.74356 7.60419 1.99688 9.77024 2.00001 12C2.00001 14.32 2.79001 16.45 4.12001 18.15C4.46001 17.87 4.76001 17.55 5.05001 17.22L4.43001 16.87L5.43001 15.13L6.16001 15.56C6.55001 14.77 6.82001 13.91 6.93001 13H6.00001V11H6.93001C6.82001 10.09 6.55001 9.23 6.16001 8.44L5.43001 8.87L4.43001 7.13L5.05001 6.78C4.76001 6.45 4.46001 6.13 4.12001 5.85ZM19.88 5.85C19.54 6.13 19.24 6.45 18.95 6.78L19.57 7.13L18.57 8.87L17.84 8.44C17.45 9.23 17.18 10.09 17.07 11H18V13H17.07C17.18 13.91 17.45 14.77 17.84 15.56L18.57 15.13L19.57 16.87L18.95 17.22C19.24 17.55 19.54 17.87 19.88 18.15C21.2565 16.3958 22.0031 14.2298 22 12C22 9.68 21.21 7.55 19.88 5.85Z" fill="#BBE2FF"/>
</svg>
