<svg width="20" height="20" viewBox="0 0 20 20" fill="none" xmlns="http://www.w3.org/2000/svg">
<path d="M19.4744 3.05219C19.3673 2.42102 19.0666 1.83877 18.6139 1.38609C18.1612 0.933407 17.579 0.632701 16.9478 0.525623C13.9122 0.0109354 8.19249 -0.224377 3.98499 3.985C-0.222511 8.19437 0.0109263 13.9131 0.525614 16.9478C0.632978 17.5796 0.934372 18.1624 1.38796 18.6151C1.84155 19.0679 2.42484 19.3682 3.05686 19.4744C4.12013 19.6557 5.19669 19.7479 6.2753 19.75C9.28374 19.75 13.03 19 16.015 16.015C20.2234 11.8075 19.989 6.08687 19.4744 3.05219ZM3.30249 17.9969C2.97794 17.9417 2.67857 17.787 2.44578 17.5542C2.213 17.3214 2.05831 17.022 2.00311 16.6975C1.74583 15.2468 1.67933 13.7686 1.8053 12.3006L7.69936 18.1947C6.23138 18.3207 4.75323 18.2542 3.30249 17.9969ZM13.5287 7.53156L12.1844 8.875L12.7787 9.46937C12.8528 9.53794 12.9124 9.62078 12.9537 9.7129C12.995 9.80502 13.0173 9.90454 13.0192 10.0055C13.0212 10.1064 13.0027 10.2067 12.9649 10.3004C12.9272 10.394 12.8709 10.4791 12.7995 10.5504C12.728 10.6218 12.6429 10.678 12.5493 10.7157C12.4556 10.7534 12.3553 10.7717 12.2543 10.7697C12.1534 10.7677 12.0539 10.7453 11.9618 10.7039C11.8697 10.6625 11.7869 10.6029 11.7184 10.5287L11.125 9.93531L9.9353 11.125L10.5297 11.7194C10.6038 11.7879 10.6634 11.8707 10.7048 11.9627C10.7462 12.0548 10.7686 12.1543 10.7706 12.2553C10.7727 12.3562 10.7543 12.4565 10.7166 12.5502C10.6789 12.6439 10.6227 12.729 10.5514 12.8004C10.48 12.8718 10.395 12.9281 10.3013 12.9659C10.2077 13.0037 10.1074 13.0221 10.0064 13.0202C9.90547 13.0182 9.80595 12.9959 9.71383 12.9546C9.6217 12.9133 9.53887 12.8538 9.4703 12.7797L8.87499 12.1844L7.53061 13.5287C7.46166 13.6013 7.37888 13.6594 7.28715 13.6994C7.19541 13.7395 7.09658 13.7608 6.99648 13.7621C6.89638 13.7634 6.79704 13.7446 6.70431 13.7069C6.61158 13.6692 6.52734 13.6133 6.45655 13.5425C6.38576 13.4717 6.32986 13.3875 6.29215 13.2947C6.25443 13.202 6.23566 13.1027 6.23694 13.0026C6.23822 12.9025 6.25953 12.8036 6.29961 12.7119C6.33969 12.6202 6.39773 12.5374 6.4703 12.4684L7.81561 11.125L7.22124 10.5306C7.08973 10.3882 7.01845 10.2005 7.02234 10.0067C7.02623 9.81292 7.10498 9.62817 7.24209 9.49118C7.3792 9.35419 7.56402 9.2756 7.75781 9.27188C7.95159 9.26817 8.13929 9.33961 8.28155 9.47125L8.87593 10.0656L10.0647 8.875L9.4703 8.28062C9.33867 8.13836 9.26722 7.95066 9.27094 7.75688C9.27466 7.5631 9.35325 7.37828 9.49024 7.24116C9.62723 7.10405 9.81198 7.0253 10.0058 7.02141C10.1995 7.01752 10.3873 7.0888 10.5297 7.22031L11.125 7.81562L12.4694 6.47125C12.5383 6.39867 12.6211 6.34063 12.7128 6.30055C12.8046 6.26048 12.9034 6.23917 13.0035 6.23789C13.1036 6.23661 13.2029 6.25538 13.2957 6.29309C13.3884 6.33081 13.4726 6.38671 13.5434 6.4575C13.6142 6.52828 13.6701 6.61252 13.7078 6.70525C13.7455 6.79799 13.7643 6.89733 13.763 6.99743C13.7618 7.09753 13.7404 7.19636 13.7004 7.28809C13.6603 7.37983 13.6023 7.46261 13.5297 7.53156H13.5287ZM18.1947 7.69937L12.3006 1.80531C12.7469 1.76406 13.2119 1.74062 13.6984 1.74062C14.704 1.74417 15.7075 1.83198 16.6984 2.00312C17.0228 2.0585 17.322 2.21326 17.5546 2.44603C17.7872 2.6788 17.9417 2.97808 17.9969 3.3025C18.2541 4.75324 18.3207 6.23139 18.1947 7.69937Z" fill="#BBE2FF"/>
</svg>
