<svg width="26" height="26" viewBox="0 0 26 26" fill="none" xmlns="http://www.w3.org/2000/svg">
<path d="M13 1.26953C8.31289 1.26953 4.51953 5.06086 4.51953 9.75C4.51953 14.4371 8.31289 18.2305 13 18.2305C17.6871 18.2305 21.4805 14.4371 21.4805 9.75C21.4805 5.06086 17.6871 1.26953 13 1.26953ZM19.5914 6.92148C19.798 6.92985 19.9905 7.08587 20.1266 7.35531C20.2628 7.62474 20.3314 7.98557 20.3176 8.35859C20.3033 8.73172 20.2075 9.08622 20.0514 9.34425C19.8952 9.60228 19.6914 9.74273 19.4848 9.73477C19.2782 9.7264 19.0857 9.57038 18.9495 9.30094C18.8134 9.03151 18.7447 8.67068 18.7586 8.29766C18.7729 7.92453 18.8687 7.57003 19.0248 7.312C19.181 7.05397 19.3847 6.91352 19.5914 6.92148ZM17.0828 8.23164C17.1769 8.23304 17.2641 8.25525 17.3418 8.29766C17.4541 8.35848 17.5449 8.46032 17.6093 8.59737C17.6736 8.73441 17.7101 8.90397 17.7167 9.09636C17.7233 9.28875 17.6999 9.50021 17.6477 9.71866C17.5956 9.93712 17.5158 10.1583 17.4129 10.3695C17.2056 10.7951 16.9172 11.1548 16.6107 11.3699C16.3042 11.585 16.0047 11.638 15.7777 11.5172C15.6648 11.4572 15.5731 11.356 15.5081 11.2193C15.4431 11.0827 15.406 10.9132 15.399 10.7207C15.3919 10.5283 15.415 10.3165 15.4669 10.0976C15.5188 9.87878 15.5986 9.6571 15.7016 9.44531C15.8726 9.09338 16.1003 8.78413 16.3497 8.56493C16.5992 8.34572 16.8567 8.22865 17.0828 8.23164ZM19.0582 11.0297C19.0788 11.0285 19.0992 11.0285 19.1191 11.0297C19.1727 11.0313 19.2238 11.0415 19.2715 11.0602C19.462 11.14 19.5883 11.3531 19.6226 11.653C19.6568 11.9528 19.5963 12.3149 19.4543 12.6598C19.3838 12.8311 19.2952 12.993 19.1938 13.1363C19.0923 13.2796 18.9798 13.4014 18.8629 13.4948C18.7459 13.5882 18.6267 13.6513 18.5121 13.6806C18.3975 13.7098 18.2897 13.7046 18.1949 13.6652C18.0044 13.5854 17.8781 13.3722 17.8439 13.0724C17.8096 12.7726 17.8701 12.4105 18.0121 12.0656C18.1296 11.7809 18.2955 11.5254 18.4845 11.3383C18.6734 11.1512 18.8749 11.0428 19.0582 11.0297ZM14.625 12.548C14.9233 12.5526 15.1488 12.6564 15.2648 12.8426C15.332 12.9512 15.3602 13.0848 15.3478 13.2358C15.3354 13.3867 15.2827 13.5521 15.1926 13.7223C15.1025 13.8925 14.9769 14.0644 14.8229 14.228C14.6688 14.3916 14.4894 14.5438 14.2949 14.6758C13.9033 14.9421 13.4739 15.1109 13.1007 15.1452C12.7276 15.1795 12.4412 15.0764 12.3043 14.8586C12.2371 14.7499 12.2089 14.6163 12.2213 14.4654C12.2337 14.3144 12.2865 14.1491 12.3765 13.9789C12.4666 13.8086 12.5923 13.6368 12.7463 13.4732C12.9003 13.3096 13.0797 13.1574 13.2742 13.0254C13.4965 12.8739 13.7334 12.7524 13.9673 12.6697C14.2011 12.5871 14.4259 12.5455 14.625 12.548ZM16.6156 14.4371C16.6399 14.4361 16.6636 14.4361 16.6867 14.4371C16.8469 14.4425 16.9779 14.4949 17.0676 14.5895C17.1389 14.6633 17.1831 14.7617 17.1977 14.879C17.2123 14.9964 17.197 15.1303 17.1526 15.2732C17.1083 15.4162 17.0358 15.5652 16.9393 15.7119C16.8428 15.8586 16.7242 16.0001 16.5902 16.1281C16.4561 16.2561 16.3094 16.3681 16.1584 16.4578C16.0075 16.5475 15.8552 16.6131 15.7104 16.6509C15.5656 16.6886 15.431 16.6977 15.3145 16.6777C15.198 16.6578 15.1017 16.609 15.0312 16.5344C14.9599 16.4605 14.9157 16.3621 14.9011 16.2448C14.8865 16.1275 14.9018 15.9935 14.9462 15.8506C14.9905 15.7077 15.063 15.5586 15.1595 15.4119C15.256 15.2652 15.3747 15.1238 15.5086 14.9957C15.6797 14.8324 15.8708 14.6957 16.0643 14.5981C16.2578 14.5005 16.4474 14.4451 16.6156 14.4371ZM9.82109 18.591C11.375 20.9473 11.375 21.8867 11.375 25.0859H14.625C14.625 21.8867 14.625 20.9473 16.1789 18.591C15.1887 18.9516 14.1172 19.1445 13 19.1445C11.8828 19.1445 10.8113 18.9516 9.82109 18.591Z" fill="#BBE2FF"/>
</svg>
