<svg width="169" height="48" viewBox="0 0 169 48" fill="none" xmlns="http://www.w3.org/2000/svg">
<path d="M19.1535 31.3135V19.2293H5.76343V15.7341H27.7333V19.2286H23.1133V31.3128H19.1528L19.1535 31.3135Z" fill="#00B3FF"/>
<path d="M28.455 31.2893V15.7106H35.1788C36.3202 15.7106 37.3239 15.8998 38.1899 16.2789C39.0565 16.6579 39.7297 17.2194 40.2115 17.9634C40.6926 18.6933 40.9332 19.5983 40.9332 20.679C40.9332 21.7598 40.6926 22.6299 40.2115 23.3739C39.7439 24.1038 39.0978 24.6579 38.2726 25.0369L41.243 31.2893H36.8906L34.3122 25.6474H32.4148V31.2893H28.4543H28.455ZM35.1174 19.1843H32.4154V22.4266H35.1174C35.6671 22.4266 36.1139 22.2864 36.458 22.0053C36.802 21.7249 36.9734 21.3244 36.9734 20.8051C36.9734 20.2859 36.8014 19.872 36.458 19.605C36.1139 19.3246 35.6671 19.1837 35.1174 19.1837V19.1843Z" fill="#00B3FF"/>
<path d="M42.506 31.2893V15.7106H53.5615V19.2051H46.4658V21.7316H52.6328V25.0577H46.4658V27.7948H53.6643V31.2893H42.5054H42.506Z" fill="#00B3FF"/>
<path d="M53.9788 31.2893L59.0528 15.7106H64.3953L69.4687 31.2893H65.344L64.5395 28.679H58.9086L58.1041 31.2893H53.9788ZM59.9608 25.2261H63.4879L61.7347 19.4789L59.9608 25.2261Z" fill="#00B3FF"/>
<path d="M69.8818 31.2893V15.7106H75.2443L78.0698 22.8264L81.0608 15.7106H86.2177V31.2893H82.2986V22.0053L79.865 27.8787H76.2344L73.8009 21.963V31.2893H69.8818Z" fill="#00B3FF"/>
<path d="M97.2951 31.2893L93.6652 15.7106H97.5842L99.977 26.174L102.451 15.7106H106.556L109.031 26.174L111.424 15.7106H115.343L111.712 31.2893H106.494L104.514 22.7419L102.513 31.2893H97.2945H97.2951Z" fill="#00B3FF"/>
<path d="M113.476 31.2893L118.55 15.7106H123.893L128.967 31.2893H124.842L124.037 28.679H118.406L117.602 31.2893H113.477H113.476ZM119.458 25.2261H122.985L121.232 19.4789L119.458 25.2261Z" fill="#00B3FF"/>
<path d="M136.056 31.5C134.736 31.5 133.581 31.2753 132.591 30.8265C131.602 30.3777 130.776 29.7739 130.116 29.0158C129.456 28.2577 128.961 27.4017 128.631 26.4471C128.301 25.4925 128.136 24.517 128.136 23.5208C128.136 22.5246 128.301 21.5491 128.631 20.5945C128.975 19.6399 129.476 18.7839 130.136 18.0258C130.809 17.2536 131.649 16.6431 132.653 16.1943C133.657 15.7314 134.825 15.4993 136.16 15.4993C137.218 15.4993 138.126 15.6328 138.882 15.8992C139.652 16.1655 140.291 16.517 140.8 16.9517C141.309 17.373 141.715 17.8218 142.017 18.2988C142.334 18.7758 142.567 19.232 142.718 19.6674C142.883 20.0887 142.993 20.4322 143.048 20.6992L143.131 21.099H139.212C139.212 21.099 139.171 20.9937 139.088 20.783C139.019 20.5724 138.874 20.3342 138.655 20.0672C138.448 19.8009 138.146 19.5621 137.747 19.3514C137.348 19.1408 136.819 19.0354 136.159 19.0354C135.292 19.0354 134.564 19.2528 133.972 19.6882C133.395 20.1095 132.954 20.6569 132.652 21.3304C132.363 22.004 132.219 22.7131 132.219 23.4564C132.219 24.1997 132.371 24.9229 132.673 25.6246C132.975 26.3122 133.423 26.8805 134.014 27.3299C134.618 27.7653 135.362 27.9827 136.241 27.9827C137.121 27.9827 137.795 27.7861 138.304 27.393C138.827 26.9858 139.171 26.4525 139.335 25.793H135.767V22.6775H143.275V23.9616C143.275 25.6038 142.966 26.9865 142.347 28.1088C141.728 29.2318 140.875 30.0805 139.789 30.6561C138.716 31.2176 137.472 31.498 136.055 31.498L136.056 31.5Z" fill="#00B3FF"/>
<path d="M143.914 31.2893V15.7106H154.969V19.2051H147.873V21.7316H154.04V25.0577H147.873V27.7948H155.072V31.2893H143.914Z" fill="#00B3FF"/>
<path d="M156.211 31.2893V15.7106H162.936C164.077 15.7106 165.081 15.8998 165.948 16.2789C166.814 16.6579 167.487 17.2194 167.969 17.9634C168.45 18.6933 168.691 19.5983 168.691 20.679C168.691 21.7598 168.45 22.6299 167.969 23.3739C167.502 24.1038 166.855 24.6579 166.03 25.0369L169 31.2893H164.648L162.069 25.6474H160.171V31.2893H156.211ZM162.874 19.1843H160.171V22.4266H162.874C163.424 22.4266 163.87 22.2864 164.214 22.0053C164.558 21.7249 164.73 21.3244 164.73 20.8051C164.73 20.2859 164.558 19.872 164.214 19.605C163.87 19.3246 163.424 19.1837 162.874 19.1837V19.1843Z" fill="#00B3FF"/>
<path fill-rule="evenodd" clip-rule="evenodd" d="M3.22893 15.7576C1.75897 15.9951 0.621413 16.8793 0.172598 18.433C-0.130707 19.4836 -0.00395295 20.7468 0.506945 21.7585C0.863281 22.4649 1.60247 23.2015 2.29186 23.5383C2.87001 23.82 3.02716 23.8442 4.5314 23.8797L5.94575 23.9126L6.24453 24.0642C6.59116 24.2406 6.93521 24.6157 7.07943 24.9746C7.13634 25.1168 7.21718 25.5555 7.27797 26.058C7.33423 26.5222 7.39243 26.9019 7.40666 26.9019C7.42089 26.9019 7.47974 26.5216 7.5373 26.0567C7.65694 25.0946 7.73713 24.8484 8.05272 24.4754C8.38189 24.087 8.75892 23.9146 9.27823 23.9146C9.79753 23.9146 10.1746 24.087 10.5037 24.4754C10.8387 24.8706 10.9319 25.1403 10.9325 25.7105C10.9325 26.1204 10.915 26.2277 10.8038 26.478C10.6512 26.8235 10.5716 26.9288 10.2774 27.1763C9.85768 27.5299 9.72575 27.5453 7.26503 27.5265L5.08304 27.5097L4.80625 27.3548C4.47837 27.1716 4.13432 26.7839 3.99011 26.4364C3.9041 26.2284 3.8834 26.064 3.86917 25.4583L3.85171 24.7297L1.92647 24.7438L0.0012207 24.7579L0.00704106 26.319C0.0122147 27.7365 0.022562 27.9196 0.115688 28.304C0.524407 29.9866 1.76673 31.2068 3.32271 31.4537C3.5788 31.4946 4.90973 31.5067 7.62525 31.4946C11.2022 31.4779 11.5831 31.4678 11.8418 31.384C12.665 31.1156 13.1022 30.8318 13.6959 30.1818C14.1014 29.7377 14.1861 29.6109 14.4047 29.1232C14.7047 28.4536 14.8043 27.9746 14.8024 27.2193C14.7966 25.3429 13.6558 23.6999 11.9879 23.1673C11.7596 23.0941 11.4175 23.0693 10.2877 23.0432L8.87339 23.0103L8.57461 22.8587C8.22862 22.6829 7.88393 22.3072 7.74036 21.9497C7.68474 21.8108 7.60132 21.36 7.53988 20.8662C7.48233 20.4013 7.42348 20.0209 7.40925 20.0209C7.39502 20.0209 7.33746 20.4006 7.28055 20.8649C7.16415 21.8249 7.08331 22.0724 6.76965 22.4434C6.10937 23.2229 4.9731 23.2229 4.31217 22.4434C4.0205 22.0993 3.89892 21.7799 3.8737 21.2915C3.85753 20.9756 3.8737 20.8333 3.95519 20.5959C4.06965 20.2618 4.36261 19.8633 4.63164 19.6754C5.04036 19.391 5.15741 19.3796 7.51466 19.3977C10.0536 19.4178 9.97538 19.4037 10.4598 19.9371C10.8737 20.3933 10.959 20.6663 10.959 21.531V22.1905H14.8548L14.8302 20.616C14.8089 19.228 14.7933 18.9912 14.7035 18.6182C14.3012 16.9578 13.1656 16.026 11.6258 15.7576C11.263 15.6946 3.62149 15.6946 3.23087 15.7576H3.22893Z" fill="#00B2FF"/>
</svg>
