<svg width="14" height="33" viewBox="0 0 14 33" fill="none" xmlns="http://www.w3.org/2000/svg">
<path fill-rule="evenodd" clip-rule="evenodd" d="M2.00455 0.0975049C1.55528 0.215989 0.964355 0.569608 0.689493 0.88447C0.429331 1.18251 0.156919 1.71108 0.067555 2.09112C-0.0225183 2.47408 -0.0225183 29.7656 0.067555 30.1486C0.230422 30.8414 0.74275 31.5258 1.36353 31.8799C1.9932 32.2391 2.03988 32.2423 6.56379 32.2423H10.7156L10.5187 32.0223C10.4104 31.9014 10.3023 31.7008 10.2786 31.5766C10.2548 31.4525 10.2873 30.8436 10.3507 30.2236L10.4661 29.0964L10.3298 28.9266C10.219 28.7884 10.2003 28.7008 10.2296 28.4578C10.2629 28.182 10.233 28.0965 9.83925 27.3445C9.42589 26.5551 9.34079 26.2685 9.47915 26.1328C9.52474 26.0881 9.48798 25.9353 9.36206 25.6458C9.18894 25.2479 9.14652 25.2025 8.61259 24.8452C7.43848 24.0596 5.68911 22.4257 4.88374 21.3624C4.23827 20.5101 3.50633 19.4302 3.17795 18.8455C3.04887 18.6157 2.93907 18.421 2.93391 18.4129C2.92875 18.4049 2.77188 18.3764 2.58529 18.3497L2.24608 18.3011L2.06799 17.8585C1.96999 17.6151 1.68152 17.0028 1.42697 16.4979C0.80987 15.274 0.719216 14.8632 0.865706 13.955C1.01723 13.0157 1.07487 12.851 1.35727 12.5507C1.51898 12.3786 1.61112 12.2201 1.61112 12.1138C1.61112 11.9474 1.6097 11.947 1.09531 11.947C0.665443 11.947 0.558026 11.9259 0.450544 11.8205C0.37962 11.751 0.321591 11.6481 0.321591 11.5919C0.321591 11.5358 0.273943 11.3579 0.215786 11.1968C0.112817 10.9118 0.114558 10.8889 0.279166 10.3606C0.37227 10.0619 0.641329 9.40748 0.877118 8.90642C1.11291 8.40536 1.45489 7.63977 1.6371 7.20509C2.20526 5.84936 2.8176 4.97596 3.38544 4.71111C3.52664 4.64523 3.89364 4.56064 4.201 4.52308C4.50836 4.48553 4.78161 4.43343 4.80817 4.40738C4.83467 4.38133 4.9604 4.35926 5.08748 4.35844C5.41599 4.35629 5.80413 4.25855 5.91471 4.15018C5.96661 4.09922 6.0436 3.82096 6.08577 3.53184C6.15405 3.06302 6.15076 2.9948 6.05527 2.90116C5.93457 2.78281 5.83734 2.27378 5.89898 2.08316C5.92135 2.01418 6.00704 1.94109 6.08951 1.92079C6.24618 1.88223 6.31756 1.68907 6.31827 1.30144C6.31917 0.793362 6.58301 0.35009 7.0188 0.124249L7.25279 0.00298349L4.80269 0.00437465C2.8675 0.00544948 2.27948 0.0250488 2.00455 0.0975049ZM8.51007 0.123491C8.63419 0.189688 8.87946 0.388152 9.05515 0.564424C9.35819 0.868537 9.37586 0.905144 9.40004 1.27893C9.41854 1.56553 9.38934 1.77354 9.29294 2.04225C9.21435 2.26132 9.17534 2.4847 9.19707 2.59123C9.22389 2.72262 9.17856 2.86538 9.02833 3.12283C8.91537 3.31643 8.78739 3.47481 8.74386 3.47481C8.70034 3.47481 8.60105 3.60334 8.52323 3.7604C8.4454 3.91751 8.26552 4.16965 8.12354 4.3207C7.76254 4.70473 7.78239 4.79185 8.28937 5.04893C8.52232 5.16709 8.75631 5.32857 8.80924 5.40779C8.86218 5.48701 9.09075 5.67024 9.31725 5.8149C10.3578 6.47971 10.7145 7.22103 10.825 8.94904C10.9081 10.2503 11.1001 11.1584 11.4457 11.8859C11.7292 12.4824 11.8425 12.8654 12.0049 13.7748C12.0882 14.2418 12.0893 14.2436 12.3464 14.3297C12.4883 14.3772 12.6492 14.4738 12.7041 14.5445C12.7589 14.615 12.874 14.7071 12.9598 14.7491C13.0484 14.7924 13.207 15.0013 13.3275 15.2334L13.5392 15.6414V9.05544C13.5392 4.4199 13.5177 2.3702 13.4667 2.13437C13.2577 1.16854 12.5507 0.407625 11.5898 0.114387C11.263 0.0146175 10.9914 -0.00213719 9.7455 0.000202146L8.28441 0.00298349L8.51007 0.123491ZM8.3955 9.26383L7.93572 9.55233L7.55325 10.5125C7.05749 11.7571 7.03956 11.8402 7.24679 11.9328C7.33499 11.9722 7.45621 12.0779 7.51611 12.1675C7.57607 12.2572 7.82011 12.9912 8.05848 13.7985C8.43019 15.0572 8.47938 15.2805 8.40407 15.3663C8.32986 15.4509 8.33122 15.5144 8.41291 15.7773C8.57687 16.3052 8.81911 17.6257 8.92227 18.5546C9.03349 19.5563 9.10158 19.7824 9.52061 20.543C10.1891 21.7565 10.1834 21.7388 10.5088 23.6397C10.7023 24.7698 10.717 24.8181 10.9872 25.2204C11.4099 25.8496 11.4392 25.9879 11.2846 26.6207C11.213 26.9133 11.1543 27.2807 11.1541 27.4372C11.1537 27.8153 11.3254 28.7581 11.4139 28.8625C11.4525 28.9082 11.4915 29.0827 11.5006 29.2503C11.5097 29.418 11.5949 29.8074 11.69 30.1155C11.8678 30.6919 11.9136 31.2813 11.8027 31.5673C11.7696 31.6526 11.6463 31.83 11.5287 31.9615L11.3148 32.2006L11.5082 32.1552C12.442 31.9367 13.2542 31.0866 13.4667 30.1053C13.5177 29.8697 13.5384 27.9466 13.5365 23.6247C13.5339 17.7391 13.529 17.4879 13.4212 17.6862C13.2667 17.9704 12.7945 18.4372 12.4772 18.6195C12.0681 18.8547 11.4644 18.9834 11.0125 18.932C10.4999 18.8736 9.82616 18.5386 9.47902 18.1693C8.33012 16.947 8.79744 14.9088 10.3638 14.3106C10.5145 14.253 10.6378 14.1705 10.6378 14.1272C10.6378 14.0839 10.4326 13.6412 10.1817 13.1435C9.59244 11.9739 9.46845 11.5939 9.20861 10.1611C9.08707 9.49119 8.9636 8.97584 8.92446 8.97565C8.88642 8.97553 8.64837 9.1052 8.3955 9.26383ZM1.41769 28.3855V30.4088H1.83678H2.25588L2.26097 29.2549C2.26374 28.6202 2.28367 28.1437 2.3052 28.1959C2.32674 28.248 2.47697 28.7602 2.639 29.3339L2.93365 30.3771L3.40072 30.3957L3.86778 30.4143V28.3883V26.3623H3.44869H3.02959L3.02566 27.4214L3.02173 28.4804L2.79851 27.7533C2.67568 27.3534 2.53035 26.8769 2.47548 26.6943L2.37568 26.3623H1.89668H1.41769V28.3855ZM4.19017 28.3855V30.4088H5.04551C6.03548 30.4088 6.25289 30.3367 6.49751 29.928C6.62421 29.7162 6.64233 29.6091 6.62646 29.1651C6.61054 28.7194 6.58655 28.6262 6.45173 28.4854C6.36572 28.3957 6.25695 28.3223 6.20995 28.3223C6.08319 28.3223 6.1055 28.2603 6.281 28.1249C6.4968 27.9585 6.59919 27.6145 6.55573 27.2019C6.48126 26.4941 6.24193 26.3623 5.03042 26.3623H4.19017V28.3855ZM7.35601 26.7575C7.31688 26.9749 7.14453 27.871 6.97309 28.7489C6.80158 29.6268 6.67592 30.3594 6.69378 30.3769C6.71164 30.3944 6.92538 30.4088 7.16884 30.4088C7.66234 30.4088 7.64222 30.4284 7.70406 29.8871L7.74564 29.5236H8.05506H8.36449L8.40891 29.9662L8.4534 30.4088H8.96373H9.47399L9.44214 30.2349C9.42467 30.1392 9.25129 29.2402 9.0569 28.237C8.86257 27.2338 8.7035 26.4017 8.7035 26.3877C8.7035 26.3737 8.41632 26.3623 8.06538 26.3623H7.4272L7.35601 26.7575ZM5.2185 27.0736C5.21669 27.0823 5.20941 27.2815 5.20238 27.5163L5.18955 27.943H5.3862C5.65816 27.943 5.7376 27.8405 5.7376 27.49C5.7376 27.2568 5.70942 27.1739 5.6129 27.1232C5.5031 27.0657 5.22739 27.0309 5.2185 27.0736ZM8.04159 27.3739C7.99375 27.4903 7.86531 28.4648 7.86531 28.7117C7.86531 28.8692 7.88923 28.8913 8.05874 28.8913C8.22825 28.8913 8.25139 28.8698 8.24604 28.7175C8.23141 28.3018 8.07712 27.2876 8.04159 27.3739ZM5.21063 29.1832L5.23171 29.7283L5.46041 29.6918C5.5862 29.6719 5.70729 29.6377 5.72947 29.6158C5.80839 29.5385 5.77035 28.8482 5.68137 28.743C5.63269 28.6855 5.50213 28.6384 5.39123 28.6383L5.18955 28.6381L5.21063 29.1832Z" fill="#BBE2FF"/>
</svg>
