<svg width="24" height="24" viewBox="0 0 24 24" fill="none" xmlns="http://www.w3.org/2000/svg">
<path d="M19.0709 4.929C18.1453 3.99606 17.0438 3.25601 15.8302 2.75169C14.6167 2.24738 13.3151 1.98882 12.0009 1.991C10.6864 1.98895 9.38458 2.24755 8.17069 2.75185C6.9568 3.25615 5.85496 3.99613 4.92889 4.929C1.02989 8.827 1.02989 15.172 4.92889 19.071C5.85497 20.0041 6.95696 20.7443 8.17106 21.2486C9.38515 21.7529 10.6872 22.0114 12.0019 22.009C13.316 22.0113 14.6175 21.7529 15.8311 21.2488C17.0447 20.7446 18.1462 20.0048 19.0719 19.072C22.9709 15.174 22.9709 8.829 19.0709 4.929ZM12.1809 4H11.8219C11.8829 3.999 11.9409 3.991 12.0019 3.991C12.0629 3.991 12.1199 3.999 12.1809 4ZM18.2429 17H15.9999L14.7419 19.516C13.8643 19.8402 12.9364 20.0071 12.0009 20.009C11.0636 20.0073 10.134 19.8401 9.25489 19.515L7.99989 17.01H5.76489C4.94032 15.9849 4.3827 14.7714 4.14189 13.478L5.99989 11L4.78389 8.567C5.1719 7.74159 5.69928 6.98924 6.34289 6.343C7.24367 5.43906 8.34778 4.76391 9.56289 4.374L11.9999 6L14.4379 4.375C15.6526 4.76519 16.7566 5.43992 17.6579 6.343C18.3008 6.98847 18.8278 7.73977 19.2159 8.564L17.9999 11L19.8579 13.478C19.6182 14.7672 19.0634 15.9771 18.2429 17Z" fill="#BBE2FF"/>
<path d="M8.5 11L10 15H14L15.5 11L12 8.5L8.5 11Z" fill="#BBE2FF"/>
</svg>
